<?xml version="1.0" standalone="no"?>
<!DOCTYPE svg PUBLIC "-//W3C//DTD SVG 20010904//EN"
 "http://www.w3.org/TR/2001/REC-SVG-20010904/DTD/svg10.dtd">
<svg version="1.0" xmlns="http://www.w3.org/2000/svg"
 width="152.000000pt" height="152.000000pt" viewBox="0 0 152.000000 152.000000"
 preserveAspectRatio="xMidYMid meet">
<metadata>
Created by potrace 1.11, written by Peter Selinger 2001-2013
</metadata>
<g transform="translate(0.000000,152.000000) scale(0.100000,-0.100000)"
fill="#000000" stroke="none">
<path d="M650 1385 c0 -7 -3 -15 -7 -17 -7 -3 -73 -105 -73 -112 0 -2 -29 -54
-65 -116 -36 -62 -65 -115 -65 -117 0 -3 -8 -17 -18 -31 -17 -24 -45 -74 -98
-172 -11 -19 -21 -37 -24 -40 -3 -3 -11 -16 -17 -30 -7 -14 -26 -47 -42 -75
-16 -27 -51 -88 -78 -135 -26 -47 -53 -94 -60 -105 -7 -11 -16 -27 -20 -35 -4
-8 -21 -39 -39 -69 -32 -52 -32 -54 -16 -87 8 -19 19 -34 24 -34 4 0 8 -7 8
-16 0 -8 14 -35 30 -60 l31 -44 638 0 c719 0 644 -9 695 83 14 26 33 59 42 72
19 29 20 25 -26 100 -20 33 -70 118 -111 190 -41 72 -79 139 -86 150 -7 11
-15 27 -19 35 -4 8 -10 17 -13 20 -3 3 -14 21 -25 40 -36 69 -79 145 -86 155
-19 23 -180 307 -180 316 0 5 -4 9 -10 9 -5 0 -10 4 -10 9 0 5 -16 36 -35 69
l-36 60 -104 0 c-81 0 -105 -3 -105 -13z m182 -656 c34 -61 71 -125 81 -142
11 -18 32 -55 48 -83 l28 -51 -230 0 c-184 0 -229 3 -225 13 5 12 182 322 210
366 5 9 13 15 17 12 4 -2 36 -54 71 -115z"/>
</g>
</svg>
